<svg xmlns="http://www.w3.org/2000/svg"  viewBox="0 0 50 50" width="25px" height="25px"><path d="M 25.535156 9.0332031 C 16.429156 9.0332031 9.0214844 16.442828 9.0214844 25.548828 C 9.0214844 34.654828 16.429156 42.0625 25.535156 42.0625 C 34.641156 42.0625 42.050781 34.654828 42.050781 25.548828 C 42.050781 16.442828 34.641156 9.0332031 25.535156 9.0332031 z M 25.535156 10.037109 C 33.998156 10.037109 41.048828 17.035828 41.048828 25.548828 C 41.048828 33.446863 34.796209 40.194693 27.044922 40.980469 L 27.015625 28.986328 L 29.996094 29.015625 L 31.019531 26.005859 L 27.015625 26.005859 L 27.015625 22.996094 C 27.015625 21.996094 28.002953 21.039062 29.001953 21.039062 L 29.994141 21.039062 L 30.025391 18.029297 L 29.001953 17.998047 C 27.075953 17.998047 25.616812 18.73475 24.757812 19.59375 C 23.898813 20.45275 23.011719 22.032531 23.011719 24.019531 C 23.011719 25.224531 22.982422 26.005859 22.982422 26.005859 L 19.980469 26.005859 L 19.980469 29.046875 L 23.011719 29.015625 L 23.011719 40.830078 C 15.684571 39.591393 10.023438 33.10306 10.023438 25.548828 C 10.023437 17.035828 17.021156 10.037109 25.535156 10.037109 z"/></svg>